<svg xmlns="http://www.w3.org/2000/svg" viewBox="0 0 512 512" fill="none" width="100%" height="100%">
  <defs>
    <linearGradient id="bg-f" x1="0%" y1="0%" x2="100%" y2="100%">
      <stop offset="0%" stop-color="#0F172A"/>
      <stop offset="100%" stop-color="#1E1035"/>
    </linearGradient>
    <linearGradient id="g1-f" x1="0%" y1="0%" x2="100%" y2="100%">
      <stop offset="0%" stop-color="#C084FC"/>
      <stop offset="50%" stop-color="#9333EA"/>
      <stop offset="100%" stop-color="#6366F1"/>
    </linearGradient>
    <linearGradient id="g2-f" x1="100%" y1="0%" x2="0%" y2="100%">
      <stop offset="0%" stop-color="#F43F5E"/>
      <stop offset="100%" stop-color="#8B5CF6"/>
    </linearGradient>
    <linearGradient id="sp-f" x1="0%" y1="0%" x2="100%" y2="100%">
      <stop offset="0%" stop-color="#38BDF8"/>
      <stop offset="100%" stop-color="#818CF8"/>
    </linearGradient>
  </defs>

  <rect width="512" height="512" rx="128" fill="url(#bg-f)"/>

  <g transform="translate(16, 16)">
    <path d="M140 64 C140 50.745 150.745 40 164 40 H260 C326.274 40 380 93.726 380 160 C380 205.215 354.981 244.577 318.397 264.845 C356.559 285.344 382 326.103 382 372 C382 438.274 328.274 492 262 492 H164 C150.745 492 140 481.255 140 468 V64 Z" fill="url(#g1-f)"/>
    <path d="M196 96 H252 C287.346 96 316 124.654 316 160 C316 195.346 287.346 224 252 224 H196 V96 Z" fill="#0F172A"/>
    <path d="M140 220 H272 C325.019 220 368 262.981 368 316 C368 369.019 325.019 412 272 412 H164 C150.745 412 140 401.255 140 388 V220 Z" fill="url(#g2-f)" opacity="0.9"/>
    <path d="M196 264 H260 C288.719 264 312 287.281 312 316 C312 344.719 288.719 368 260 368 H196 V264 Z" fill="#0F172A"/>
    <path d="M 330 216 Q 362 216 362 184 Q 362 216 394 216 Q 362 216 362 248 Q 362 216 330 216 Z" fill="url(#sp-f)"/>
  </g>
</svg>
